<svg width="50" height="50" viewBox="0 0 50 50" fill="none" xmlns="http://www.w3.org/2000/svg">
<circle cx="25" cy="25" r="15" fill="url(#paint0_linear_2_28)"/>
<path fill-rule="evenodd" clip-rule="evenodd" d="M5.96867 8.78788C2.24672 13.1528 0 18.814 0 25C0 38.8071 11.1929 50 25 50C31.7418 50 37.8604 47.3314 42.3569 42.9928L40.5329 41.2782C36.4944 45.1329 31.0236 47.5 25 47.5C12.5736 47.5 2.5 37.4264 2.5 25C2.5 19.4766 4.49022 14.4181 7.79266 10.5024L5.96867 8.78788ZM42.5611 39.0675C45.6514 35.2147 47.5 30.3232 47.5 25C47.5 12.5736 37.4264 2.5 25 2.5C19.1767 2.5 13.87 4.71226 9.87469 8.3422L8.04801 6.62512C12.5036 2.51249 18.4584 0 25 0C38.8071 0 50 11.1929 50 25C50 30.9859 47.8963 36.4804 44.3878 40.7845L42.5611 39.0675Z" fill="url(#paint1_linear_2_28)"/>
<path fill-rule="evenodd" clip-rule="evenodd" d="M12.7778 40.6083C16.2028 43.3561 20.5516 45 25.2843 45C36.33 45 45.2843 36.0457 45.2843 25C45.2843 19.8228 43.3171 15.105 40.0895 11.5533L38.3711 13.3814C41.1167 16.4717 42.7843 20.5411 42.7843 25C42.7843 34.665 34.9493 42.5 25.2843 42.5C21.2143 42.5 17.4688 41.1106 14.4962 38.7802L12.7778 40.6083ZM36.1947 11.3166C33.2029 8.92793 29.4103 7.5 25.2843 7.5C15.6193 7.5 7.78427 15.335 7.78427 25C7.78427 29.515 9.49411 33.6307 12.3016 36.7348L10.5844 38.5616C7.29426 34.9971 5.28427 30.2333 5.28427 25C5.28427 13.9543 14.2386 5 25.2843 5C30.073 5 34.4686 6.68299 37.9119 9.48975L36.1947 11.3166Z" fill="url(#paint2_linear_2_28)"/>
<defs>
<linearGradient id="paint0_linear_2_28" x1="10" y1="40" x2="40" y2="10" gradientUnits="userSpaceOnUse">
<stop stop-color="#FC9601"/>
<stop offset="1" stop-color="#FFE484"/>
</linearGradient>
<linearGradient id="paint1_linear_2_28" x1="2.68221e-07" y1="50" x2="50" y2="2.68221e-07" gradientUnits="userSpaceOnUse">
<stop stop-color="#D14009"/>
<stop offset="1" stop-color="#FFE484"/>
</linearGradient>
<linearGradient id="paint2_linear_2_28" x1="-9.5" y1="60.5" x2="45" y2="5" gradientUnits="userSpaceOnUse">
<stop stop-color="#D14009"/>
<stop offset="1" stop-color="#FFE484"/>
</linearGradient>
</defs>
</svg>
