<svg width="40" height="40" viewBox="0 0 40 40" fill="none" xmlns="http://www.w3.org/2000/svg">
<circle cx="20" cy="20" r="13.6" fill="hsl(0, 74%, 85%)"/>
<path fill-rule="evenodd" clip-rule="evenodd" d="M31.3109 30H37.4013L34.324 24.6964C33.6826 26.6726 32.6474 28.4713 31.3109 30ZM30.1496 31.1909C28.6607 32.5602 26.8977 33.6361 24.9524 34.3272L30.1496 37.3128V31.1909ZM22.963 34.8837C21.9623 35.091 20.9255 35.2 19.8634 35.2C18.9055 35.2 17.9683 35.1114 17.0596 34.9419L19.9944 40L22.963 34.8837ZM14.8716 34.3613C13.0058 33.7129 11.3054 32.7112 9.8504 31.4362V37.2459L14.8716 34.3613ZM8.41581 30C7.14414 28.5454 6.14521 26.8463 5.4988 24.9825L2.5875 30H8.41581ZM4.92474 22.8215C4.75312 21.9073 4.66336 20.9641 4.66336 20C4.66336 19.0299 4.75425 18.0809 4.92798 17.1613L0 19.9923L4.92474 22.8215ZM5.49881 15.0175C6.14521 13.1536 7.14414 11.4546 8.41581 10L2.58751 10L5.49881 15.0175ZM9.8504 8.56379C11.3476 7.25182 13.1048 6.22916 15.0345 5.58309L9.8504 2.60491L9.8504 8.56379ZM17.0595 5.05807C17.9683 4.88861 18.9055 4.8 19.8634 4.8C20.9255 4.8 21.9623 4.90895 22.963 5.11629L19.9944 0L17.0595 5.05807ZM24.9359 5.667C26.8878 6.35778 28.6565 7.43596 30.1496 8.80912V2.67183L24.9359 5.667ZM31.3109 10H37.4013L34.324 15.3036C33.6826 13.3274 32.6474 11.5287 31.3109 10ZM40 19.9254L34.7488 16.9087C34.955 17.9068 35.0634 18.9408 35.0634 20C35.0634 20.9997 34.9668 21.9769 34.7826 22.9227L40 19.9254Z" fill="hsl(0, 74%, 85%)"/>
</svg>
